<svg width="24" height="18" viewBox="0 0 24 18" fill="none" xmlns="http://www.w3.org/2000/svg">
<path fill-rule="evenodd" clip-rule="evenodd" d="M2.46839 7.47678C2.53806 7.42439 2.62082 7.38283 2.71194 7.35448C2.80306 7.32612 2.90074 7.31152 2.99939 7.31152C3.09804 7.31152 3.19572 7.32612 3.28684 7.35448C3.37796 7.38283 3.46072 7.42439 3.53039 7.47678L11.9994 13.8297L20.4684 7.47678C20.6092 7.37116 20.8002 7.31182 20.9994 7.31182C21.1986 7.31182 21.3896 7.37116 21.5304 7.47678C21.6712 7.5824 21.7503 7.72566 21.7503 7.87503C21.7503 8.0244 21.6712 8.16766 21.5304 8.27328L12.5304 15.0233C12.4607 15.0757 12.378 15.1172 12.2868 15.1456C12.1957 15.1739 12.098 15.1885 11.9994 15.1885C11.9007 15.1885 11.8031 15.1739 11.7119 15.1456C11.6208 15.1172 11.5381 15.0757 11.4684 15.0233L2.46839 8.27328C2.39854 8.22103 2.34313 8.15896 2.30532 8.09062C2.26751 8.02228 2.24805 7.94902 2.24805 7.87503C2.24805 7.80104 2.26751 7.72778 2.30532 7.65944C2.34313 7.5911 2.39854 7.52903 2.46839 7.47678Z" fill="white"/>
<path fill-rule="evenodd" clip-rule="evenodd" d="M2.46839 2.97678C2.53806 2.9244 2.62082 2.88283 2.71194 2.85448C2.80306 2.82612 2.90074 2.81152 2.99939 2.81152C3.09804 2.81152 3.19572 2.82612 3.28684 2.85448C3.37796 2.88283 3.46072 2.9244 3.53039 2.97678L11.9994 9.32965L20.4684 2.97678C20.5381 2.92448 20.6209 2.88299 20.712 2.85469C20.8031 2.82639 20.9008 2.81182 20.9994 2.81182C21.098 2.81182 21.1957 2.82639 21.2868 2.85469C21.3779 2.88299 21.4607 2.92448 21.5304 2.97678C21.6001 3.02908 21.6554 3.09117 21.6932 3.1595C21.7309 3.22783 21.7503 3.30107 21.7503 3.37503C21.7503 3.44899 21.7309 3.52223 21.6932 3.59056C21.6554 3.65889 21.6001 3.72098 21.5304 3.77328L12.5304 10.5233C12.4607 10.5757 12.378 10.6172 12.2868 10.6456C12.1957 10.6739 12.098 10.6885 11.9994 10.6885C11.9007 10.6885 11.8031 10.6739 11.7119 10.6456C11.6208 10.6172 11.5381 10.5757 11.4684 10.5233L2.46839 3.77328C2.39854 3.72103 2.34313 3.65896 2.30532 3.59062C2.26751 3.52228 2.24805 3.44902 2.24805 3.37503C2.24805 3.30104 2.26751 3.22778 2.30532 3.15944C2.34313 3.0911 2.39854 3.02903 2.46839 2.97678Z" fill="white"/>
</svg>
