<svg width="32" height="33" viewBox="0 0 32 33" fill="none" xmlns="http://www.w3.org/2000/svg">
<path fill-rule="evenodd" clip-rule="evenodd" d="M15.8313 30.8856C7.96254 30.8856 1.5835 24.3354 1.5835 16.2556C1.5835 8.17574 7.96254 1.62556 15.8313 1.62556C23.7 1.62556 30.079 8.17574 30.079 16.2556C30.079 24.3354 23.7 30.8856 15.8313 30.8856ZM15.8313 32.5111C7.08788 32.5111 0.000410557 25.2335 0.000410557 16.2556C0.000410557 7.27762 7.08788 0 15.8313 0C24.5746 0 31.6621 7.27762 31.6621 16.2556C31.6621 25.2335 24.5746 32.5111 15.8313 32.5111Z" fill="white"/>
<path d="M25.3301 25.7077C25.3301 24.8681 24.719 24.1586 23.9053 24.0659C17.7986 23.3718 13.8369 23.4344 7.74359 24.0814C7.43931 24.1142 7.15092 24.2373 6.91365 24.4356C6.67638 24.6339 6.50049 24.8989 6.40748 25.1982C6.31446 25.4975 6.30835 25.8181 6.38987 26.1209C6.4714 26.4237 6.63704 26.6956 6.86656 26.9033C14.0577 33.3397 18.1674 33.2511 24.8235 26.9098C25.148 26.601 25.3301 26.1621 25.3301 25.7085V25.7077Z" fill="white"/>
<path fill-rule="evenodd" clip-rule="evenodd" d="M7.8236 24.889C13.8686 24.2469 17.7733 24.1867 23.8175 24.8735C24.2244 24.9199 24.537 25.2767 24.537 25.7083C24.537 25.9407 24.4428 26.161 24.2837 26.3138C20.9846 29.456 18.4849 30.8759 16.0414 30.8848C13.5892 30.8938 10.9549 29.4852 7.38509 26.291C7.27168 26.1874 7.19004 26.0521 7.15008 25.9017C7.11013 25.7513 7.11359 25.5922 7.16004 25.4438C7.20649 25.2954 7.29393 25.164 7.41173 25.0656C7.52953 24.9673 7.67262 24.9062 7.8236 24.8898V24.889ZM23.9909 23.2577C17.82 22.5563 13.8005 22.6197 7.65976 23.2724C7.20201 23.3214 6.76812 23.5065 6.41121 23.8048C6.0543 24.1032 5.78986 24.502 5.65025 24.9523C5.51065 25.4026 5.50194 25.8849 5.62519 26.3403C5.74845 26.7956 5.99832 27.2041 6.34421 27.5159C9.96552 30.7572 12.9813 32.5226 16.0462 32.5104C19.1197 32.499 22.0025 30.7036 25.3594 27.5053C25.5998 27.2754 25.7914 26.9971 25.9223 26.6878C26.0532 26.3784 26.1205 26.0447 26.1201 25.7074C26.1213 25.1015 25.9047 24.5163 25.5118 24.0642C25.1189 23.612 24.5773 23.3246 23.9909 23.2569V23.2577Z" fill="white"/>
<path d="M9.50134 13.0042C9.50134 14.7287 10.1685 16.3825 11.356 17.602C12.5436 18.8214 14.1542 19.5064 15.8337 19.5064C17.5131 19.5064 19.1238 18.8214 20.3113 17.602C21.4989 16.3825 22.166 14.7287 22.166 13.0042C22.166 11.2797 21.4989 9.62582 20.3113 8.40641C19.1238 7.18701 17.5131 6.50195 15.8337 6.50195C14.1542 6.50195 12.5436 7.18701 11.356 8.40641C10.1685 9.62582 9.50134 11.2797 9.50134 13.0042V13.0042Z" fill="white"/>
<path fill-rule="evenodd" clip-rule="evenodd" d="M15.8337 17.8809C14.5741 17.8809 13.3661 17.3671 12.4754 16.4525C11.5848 15.538 11.0844 14.2976 11.0844 13.0042C11.0844 11.7108 11.5848 10.4704 12.4754 9.55585C13.3661 8.6413 14.5741 8.12751 15.8337 8.12751C17.0933 8.12751 18.3012 8.6413 19.1919 9.55585C20.0826 10.4704 20.5829 11.7108 20.5829 13.0042C20.5829 14.2976 20.0826 15.538 19.1919 16.4525C18.3012 17.3671 17.0933 17.8809 15.8337 17.8809V17.8809ZM15.8337 19.5064C14.1542 19.5064 12.5436 18.8214 11.356 17.602C10.1685 16.3825 9.50134 14.7287 9.50134 13.0042C9.50134 11.2797 10.1685 9.62582 11.356 8.40641C12.5436 7.18701 14.1542 6.50195 15.8337 6.50195C17.5131 6.50195 19.1238 7.18701 20.3113 8.40641C21.4989 9.62582 22.166 11.2797 22.166 13.0042C22.166 14.7287 21.4989 16.3825 20.3113 17.602C19.1238 18.8214 17.5131 19.5064 15.8337 19.5064V19.5064Z" fill="white"/>
</svg>
