<svg width="60" height="60" viewBox="0 0 39 39" fill="none" xmlns="http://www.w3.org/2000/svg">
<path fill-rule="evenodd" clip-rule="evenodd" d="M19.1539 36.2701C28.6695 36.2701 36.3836 28.6925 36.3836 19.3453C36.3836 9.99817 28.6695 2.42057 19.1539 2.42057C9.63831 2.42057 1.92418 9.99817 1.92418 19.3453C1.92418 28.6925 9.63831 36.2701 19.1539 36.2701ZM19.1539 38.1507C29.7272 38.1507 38.2981 29.7315 38.2981 19.3453C38.2981 8.95918 29.7272 0.540039 19.1539 0.540039C8.5806 0.540039 0.00976562 8.95918 0.00976562 19.3453C0.00976562 29.7315 8.5806 38.1507 19.1539 38.1507Z" fill="white"/>
<path d="M7.66797 30.2808C7.66797 29.3095 8.40693 28.4886 9.39094 28.3815C16.7758 27.5785 21.5666 27.6509 28.9352 28.3993C29.3032 28.4373 29.6519 28.5797 29.9388 28.8091C30.2258 29.0386 30.4385 29.3451 30.5509 29.6914C30.6634 30.0376 30.6708 30.4085 30.5722 30.7588C30.4736 31.1091 30.2733 31.4236 29.9958 31.6639C21.2996 39.1099 16.3297 39.0074 8.28058 31.6714C7.88813 31.3141 7.66797 30.8064 7.66797 30.2817V30.2808Z" fill="white"/>
<path fill-rule="evenodd" clip-rule="evenodd" d="M28.8368 29.3338C21.5266 28.5909 16.8047 28.5214 9.49546 29.3159C9.00345 29.3695 8.62536 29.7823 8.62536 30.2815C8.62536 30.5505 8.73926 30.8053 8.93166 30.982C12.9213 34.6171 15.9442 36.2597 18.8991 36.2701C21.8645 36.2804 25.0501 34.651 29.3671 30.9557C29.5042 30.8358 29.603 30.6793 29.6513 30.5053C29.6996 30.3313 29.6954 30.1473 29.6392 29.9756C29.5831 29.8039 29.4773 29.6519 29.3349 29.5381C29.1924 29.4244 29.0194 29.3537 28.8368 29.3347V29.3338ZM9.28583 27.4466C16.7482 26.6352 21.6089 26.7085 29.0349 27.4636C29.5885 27.5203 30.1132 27.7344 30.5448 28.0796C30.9764 28.4247 31.2962 28.886 31.465 29.407C31.6338 29.9279 31.6444 30.4859 31.4953 31.0127C31.3463 31.5394 31.0441 32.012 30.6258 32.3727C26.2466 36.1225 22.5996 38.1647 18.8933 38.1506C15.1765 38.1375 11.6903 36.0604 7.63082 32.3605C7.34017 32.0945 7.10846 31.7726 6.95019 31.4147C6.79192 31.0569 6.71047 30.6708 6.71094 30.2806C6.70955 29.5796 6.9715 28.9027 7.44662 28.3796C7.92174 27.8565 8.57662 27.524 9.28583 27.4457V27.4466Z" fill="white"/>
<path d="M26.8114 15.5841C26.8114 17.5791 26.0046 19.4924 24.5685 20.9031C23.1324 22.3137 21.1847 23.1063 19.1538 23.1063C17.1228 23.1063 15.1751 22.3137 13.739 20.9031C12.3029 19.4924 11.4961 17.5791 11.4961 15.5841C11.4961 13.5891 12.3029 11.6759 13.739 10.2652C15.1751 8.85452 17.1228 8.06201 19.1538 8.06201C21.1847 8.06201 23.1324 8.85452 24.5685 10.2652C26.0046 11.6759 26.8114 13.5891 26.8114 15.5841Z" fill="white"/>
<path fill-rule="evenodd" clip-rule="evenodd" d="M19.1538 21.2257C20.677 21.2257 22.1378 20.6313 23.2148 19.5733C24.2919 18.5153 24.897 17.0804 24.897 15.5841C24.897 14.0879 24.2919 12.6529 23.2148 11.5949C22.1378 10.5369 20.677 9.94254 19.1538 9.94254C17.6305 9.94254 16.1697 10.5369 15.0927 11.5949C14.0156 12.6529 13.4105 14.0879 13.4105 15.5841C13.4105 17.0804 14.0156 18.5153 15.0927 19.5733C16.1697 20.6313 17.6305 21.2257 19.1538 21.2257ZM19.1538 23.1063C21.1847 23.1063 23.1324 22.3137 24.5685 20.9031C26.0046 19.4924 26.8114 17.5791 26.8114 15.5841C26.8114 13.5891 26.0046 11.6759 24.5685 10.2652C23.1324 8.85452 21.1847 8.06201 19.1538 8.06201C17.1228 8.06201 15.1751 8.85452 13.739 10.2652C12.3029 11.6759 11.4961 13.5891 11.4961 15.5841C11.4961 17.5791 12.3029 19.4924 13.739 20.9031C15.1751 22.3137 17.1228 23.1063 19.1538 23.1063Z" fill="white"/>
</svg>
