<svg width="24" height="24" viewBox="0 0 24 24" fill="none" xmlns="http://www.w3.org/2000/svg">
<path d="M6.19091 21.855C6.07879 21.9354 5.94667 21.9833 5.80909 21.9934C5.67151 22.0036 5.5338 21.9756 5.4111 21.9125C5.2884 21.8495 5.18547 21.7538 5.11363 21.636C5.04179 21.5183 5.00382 21.383 5.00391 21.245V6.25C5.00391 5.38805 5.34632 4.5614 5.95581 3.9519C6.5653 3.34241 7.39195 3 8.25391 3H15.7519C16.6139 3 17.4405 3.34241 18.05 3.9519C18.6595 4.5614 19.0019 5.38805 19.0019 6.25V21.246C19.0019 21.384 18.9639 21.5194 18.8919 21.6372C18.82 21.755 18.7169 21.8506 18.594 21.9136C18.4712 21.9766 18.3334 22.0044 18.1957 21.9941C18.0581 21.9837 17.926 21.9356 17.8139 21.855L12.0039 17.674L6.19191 21.854L6.19091 21.855Z" fill="white"/>
</svg>
