<svg width="26" height="26" viewBox="0 0 26 26" fill="none" xmlns="http://www.w3.org/2000/svg">
<path d="M25.1903 3.15265C25.3421 3.30495 25.4274 3.51123 25.4274 3.72628C25.4274 3.94132 25.3421 4.1476 25.1903 4.2999L23.4954 5.9964L20.2454 2.7464L21.9403 1.0499C22.0927 0.897581 22.2993 0.812012 22.5147 0.812012C22.7302 0.812012 22.9368 0.897581 23.0892 1.0499L25.1903 3.15103V3.15265ZM22.3465 7.14365L19.0965 3.89365L8.02541 14.9664C7.93598 15.0558 7.86865 15.1649 7.82879 15.2849L6.52066 19.2076C6.49694 19.2792 6.49357 19.3559 6.51093 19.4292C6.5283 19.5025 6.56571 19.5695 6.61899 19.6228C6.67227 19.6761 6.73931 19.7135 6.81263 19.7309C6.88595 19.7482 6.96265 19.7449 7.03416 19.7211L10.9569 18.413C11.0768 18.3736 11.1858 18.3069 11.2754 18.218L22.3465 7.14528V7.14365Z" fill="white"/>
<path fill-rule="evenodd" clip-rule="evenodd" d="M1.625 21.9375C1.625 22.584 1.88181 23.204 2.33893 23.6611C2.79605 24.1182 3.41603 24.375 4.0625 24.375H21.9375C22.584 24.375 23.204 24.1182 23.6611 23.6611C24.1182 23.204 24.375 22.584 24.375 21.9375V12.1875C24.375 11.972 24.2894 11.7653 24.137 11.613C23.9847 11.4606 23.778 11.375 23.5625 11.375C23.347 11.375 23.1403 11.4606 22.988 11.613C22.8356 11.7653 22.75 11.972 22.75 12.1875V21.9375C22.75 22.153 22.6644 22.3597 22.512 22.512C22.3597 22.6644 22.153 22.75 21.9375 22.75H4.0625C3.84701 22.75 3.64035 22.6644 3.48798 22.512C3.3356 22.3597 3.25 22.153 3.25 21.9375V4.0625C3.25 3.84701 3.3356 3.64035 3.48798 3.48798C3.64035 3.3356 3.84701 3.25 4.0625 3.25H14.625C14.8405 3.25 15.0472 3.1644 15.1995 3.01202C15.3519 2.85965 15.4375 2.65299 15.4375 2.4375C15.4375 2.22201 15.3519 2.01535 15.1995 1.86298C15.0472 1.7106 14.8405 1.625 14.625 1.625H4.0625C3.41603 1.625 2.79605 1.88181 2.33893 2.33893C1.88181 2.79605 1.625 3.41603 1.625 4.0625V21.9375Z" fill="white"/>
</svg>
