<svg width="88" height="69" viewBox="0 0 88 69" fill="none" xmlns="http://www.w3.org/2000/svg">
<g clip-path="url(#clip0_645_2253)">
<path d="M26.4701 35.4796C34.8626 35.4796 41.6553 28.8562 41.6553 20.6729C41.6553 12.4896 34.8626 5.86621 26.4701 5.86621C18.0776 5.86621 11.285 12.4896 11.285 20.6729C11.285 28.8562 18.0776 35.4796 26.4701 35.4796ZM36.8828 39.7101H35.7575C32.9374 41.0321 29.8054 41.8253 26.4701 41.8253C23.1348 41.8253 20.0165 41.0321 17.1828 39.7101H16.0575C7.43449 39.7101 0.438477 46.5317 0.438477 54.9398V58.7472C0.438477 62.2506 3.35348 65.093 6.94639 65.093H45.9939C49.5868 65.093 52.5018 62.2506 52.5018 58.7472V54.9398C52.5018 46.5317 45.5058 39.7101 36.8828 39.7101ZM65.5176 35.4796C72.7035 35.4796 78.5335 29.7949 78.5335 22.7881C78.5335 15.7814 72.7035 10.0967 65.5176 10.0967C58.3318 10.0967 52.5018 15.7814 52.5018 22.7881C52.5018 29.7949 58.3318 35.4796 65.5176 35.4796ZM72.0255 39.7101H71.5103C69.6258 40.3446 67.6327 40.7677 65.5176 40.7677C63.4026 40.7677 61.4095 40.3446 59.5249 39.7101H59.0097C56.2439 39.7101 53.6949 40.4901 51.4578 41.746C54.766 45.2229 56.8404 49.8368 56.8404 54.9398V60.0164C56.8404 60.3072 56.7726 60.5849 56.7591 60.8625H80.7028C84.2957 60.8625 87.2107 58.0201 87.2107 54.5168C87.2107 46.3334 80.418 39.7101 72.0255 39.7101Z" fill="white"/>
</g>
<defs>
<clipPath id="clip0_645_2253">
<rect width="86.7722" height="67.6877" fill="white" transform="translate(0.438477 0.852539)"/>
</clipPath>
</defs>
</svg>
