<svg width="45" height="42" viewBox="0 0 45 42" fill="none" xmlns="http://www.w3.org/2000/svg">
<ellipse rx="22.0869" ry="20.9948" transform="matrix(-1 0 0 1 22.0869 20.9948)" fill="#167D8F"/>
<path d="M19.528 9.56251C19.7273 9.10085 20.069 8.70549 20.5094 8.42711C20.9498 8.14872 21.4689 8 22 8C22.5312 8 23.0502 8.14872 23.4906 8.42711C23.931 8.70549 24.2727 9.10085 24.472 9.56251C26.4436 10.0709 28.1827 11.1721 29.4222 12.697C30.6617 14.2219 31.3331 16.0861 31.3332 18.0034V23.8753L33.7758 27.3106C33.9098 27.4989 33.9867 27.7177 33.9984 27.9438C34.0101 28.1699 33.9562 28.3947 33.8423 28.5942C33.7284 28.7938 33.5589 28.9606 33.3518 29.0769C33.1447 29.1932 32.9079 29.2546 32.6665 29.2546H26.6199C26.4594 30.2961 25.904 31.2485 25.0556 31.9373C24.2071 32.6261 23.1223 33.0053 22 33.0053C20.8777 33.0053 19.7929 32.6261 18.9444 31.9373C18.096 31.2485 17.5406 30.2961 17.3801 29.2546H11.3335C11.0921 29.2546 10.8553 29.1932 10.6482 29.0769C10.4411 28.9606 10.2716 28.7938 10.1577 28.5942C10.0438 28.3947 9.98986 28.1699 10.0016 27.9438C10.0133 27.7177 10.0902 27.4989 10.2242 27.3106L12.6668 23.8753V18.0034C12.6668 13.973 15.5734 10.5776 19.528 9.56251ZM20.1147 29.2546C20.2524 29.6204 20.5077 29.9372 20.8455 30.1613C21.1833 30.3854 21.5869 30.5057 22.0007 30.5057C22.4144 30.5057 22.818 30.3854 23.1558 30.1613C23.4936 29.9372 23.7489 29.6204 23.8866 29.2546H20.1134H20.1147ZM22 11.7527C20.2319 11.7527 18.5363 12.4113 17.286 13.5835C16.0358 14.7557 15.3334 16.3456 15.3334 18.0034V24.2541C15.3335 24.501 15.2556 24.7424 15.1094 24.9479L13.8255 26.7543H30.1732L28.8892 24.9479C28.7436 24.7423 28.6661 24.5009 28.6666 24.2541V18.0034C28.6666 16.3456 27.9642 14.7557 26.714 13.5835C25.4637 12.4113 23.7681 11.7527 22 11.7527V11.7527Z" fill="white"/>
</svg>
