<svg width="60" height="60" viewBox="0 0 38 40" fill="none" xmlns="http://www.w3.org/2000/svg">
<path d="M9.87695 12.2743C9.87695 11.9751 9.99797 11.6881 10.2134 11.4765C10.4288 11.2649 10.721 11.146 11.0256 11.146H17.9175C18.2221 11.146 18.5143 11.2649 18.7297 11.4765C18.9451 11.6881 19.0661 11.9751 19.0661 12.2743C19.0661 12.5736 18.9451 12.8606 18.7297 13.0722C18.5143 13.2838 18.2221 13.4026 17.9175 13.4026H11.0256C10.721 13.4026 10.4288 13.2838 10.2134 13.0722C9.99797 12.8606 9.87695 12.5736 9.87695 12.2743Z" fill="white"/>
<path d="M11.0256 15.6592C10.721 15.6592 10.4288 15.7781 10.2134 15.9897C9.99797 16.2013 9.87695 16.4882 9.87695 16.7875C9.87695 17.0867 9.99797 17.3737 10.2134 17.5853C10.4288 17.7969 10.721 17.9158 11.0256 17.9158H15.6202C15.9248 17.9158 16.217 17.7969 16.4324 17.5853C16.6478 17.3737 16.7688 17.0867 16.7688 16.7875C16.7688 16.4882 16.6478 16.2013 16.4324 15.9897C16.217 15.7781 15.9248 15.6592 15.6202 15.6592H11.0256Z" fill="white"/>
<path d="M14.472 0.991212C12.0806 0.990421 9.7302 1.60078 7.65164 2.76233C5.57308 3.92387 3.83792 5.59663 2.61665 7.61624C1.39537 9.63586 0.73001 11.9328 0.685936 14.2815C0.641861 16.6301 1.22059 18.9496 2.36526 21.0121L0.73418 26.6311C0.676788 26.8284 0.675259 27.0374 0.729758 27.2355C0.784258 27.4336 0.892722 27.6133 1.04348 27.7554C1.19423 27.8974 1.38157 27.9964 1.58533 28.0416C1.78909 28.0869 2.00155 28.0767 2.19986 28.0122L7.57094 26.2543C9.40156 27.2934 11.451 27.9049 13.5607 28.0415C15.6704 28.1781 17.7839 27.8362 19.7375 27.0421C21.6912 26.248 23.4327 25.0231 24.8273 23.4622C26.2219 21.9012 27.2323 20.046 27.7802 18.0401C28.3282 16.0342 28.399 13.9313 27.9873 11.8942C27.5755 9.85712 26.6922 7.94036 25.4057 6.29223C24.1192 4.6441 22.464 3.30878 20.568 2.38957C18.6721 1.47036 16.5863 0.991906 14.472 0.991212ZM2.98553 14.531C2.98591 12.0275 3.83389 9.59524 5.39596 7.61709C6.95804 5.63895 9.1455 4.22729 11.614 3.60437C14.0824 2.98145 16.6917 3.18265 19.031 4.17628C21.3702 5.16991 23.3067 6.89954 24.5354 9.09288C25.7641 11.2862 26.2154 13.8187 25.8181 16.2916C25.4208 18.7645 24.1975 21.0374 22.3409 22.7524C20.4842 24.4674 18.0997 25.5272 15.5626 25.7649C13.0255 26.0026 10.4799 25.4047 8.32675 24.0653C8.18272 23.9756 8.02017 23.9186 7.85089 23.8983C7.68161 23.878 7.50986 23.8949 7.3481 23.948L3.53918 25.1959L4.7108 21.1768C4.75349 21.0288 4.76491 20.8738 4.74437 20.7213C4.72383 20.5688 4.67175 20.422 4.59134 20.29C3.53656 18.5479 2.98166 16.5579 2.98553 14.531Z" fill="white"/>
<path d="M24.2944 32.4646L18.7763 29.7567C19.7871 29.4791 20.7588 29.109 21.6777 28.6554L24.809 30.1945L35.1468 25.117V23.5577C35.1468 22.9592 34.9048 22.3852 34.4739 21.962C34.0431 21.5388 33.4588 21.3011 32.8495 21.3011H29.0038C29.3553 20.5789 29.6494 19.823 29.886 19.0444H32.8495C34.0681 19.0444 35.2367 19.5199 36.0984 20.3663C36.96 21.2127 37.4441 22.3607 37.4441 23.5577V34.8409C37.4441 36.0379 36.96 37.1859 36.0984 38.0323C35.2367 38.8787 34.0681 39.3542 32.8495 39.3542H16.7684C15.5499 39.3542 14.3812 38.8787 13.5196 38.0323C12.6579 37.1859 12.1738 36.0379 12.1738 34.8409V30.1697C12.925 30.2735 13.69 30.3276 14.4711 30.3276V34.8409C14.4711 35.4394 14.7132 36.0134 15.144 36.4366C15.5748 36.8598 16.1591 37.0975 16.7684 37.0975H32.8495C33.4588 37.0975 34.0431 36.8598 34.4739 36.4366C34.9048 36.0134 35.1468 35.4394 35.1468 34.8409V27.64L25.3236 32.4646C25.1638 32.5433 24.9876 32.5842 24.809 32.5842C24.6303 32.5842 24.4541 32.5433 24.2944 32.4646Z" fill="white"/>
</svg>
