<svg width="46" height="43" viewBox="0 0 46 43" fill="none" xmlns="http://www.w3.org/2000/svg">
<g id="Group 158">
<ellipse id="Ellipse 29" cx="22.927" cy="21.4449" rx="22.927" ry="21.4449" fill="#167D8F"/>
<g id="fluent:chat-mail-20-regular">
<g id="Group">
<path id="Vector" d="M17.9609 16.2986C17.9609 16.128 18.0314 15.9644 18.1568 15.8437C18.2822 15.7231 18.4523 15.6553 18.6296 15.6553H22.6419C22.8192 15.6553 22.9893 15.7231 23.1147 15.8437C23.2401 15.9644 23.3106 16.128 23.3106 16.2986C23.3106 16.4692 23.2401 16.6329 23.1147 16.7535C22.9893 16.8742 22.8192 16.942 22.6419 16.942H18.6296C18.4523 16.942 18.2822 16.8742 18.1568 16.7535C18.0314 16.6329 17.9609 16.4692 17.9609 16.2986Z" fill="white"/>
<path id="Vector_2" d="M18.6296 18.2285C18.4523 18.2285 18.2822 18.2963 18.1568 18.4169C18.0314 18.5376 17.9609 18.7012 17.9609 18.8719C17.9609 19.0425 18.0314 19.2061 18.1568 19.3268C18.2822 19.4474 18.4523 19.5152 18.6296 19.5152H21.3045C21.4818 19.5152 21.6519 19.4474 21.7773 19.3268C21.9027 19.2061 21.9732 19.0425 21.9732 18.8719C21.9732 18.7012 21.9027 18.5376 21.7773 18.4169C21.6519 18.2963 21.4818 18.2285 21.3045 18.2285H18.6296Z" fill="white"/>
<path id="Vector_3" d="M20.6355 9.86523C19.2434 9.86478 17.875 10.2128 16.665 10.8751C15.4549 11.5374 14.4447 12.4912 13.7338 13.6427C13.0228 14.7943 12.6354 16.1039 12.6098 17.4431C12.5841 18.7823 12.921 20.1048 13.5874 21.2808L12.6378 24.4846C12.6044 24.5971 12.6035 24.7163 12.6353 24.8292C12.667 24.9422 12.7301 25.0447 12.8179 25.1257C12.9057 25.2067 13.0147 25.2631 13.1334 25.2889C13.252 25.3147 13.3757 25.3089 13.4911 25.2721L16.618 24.2698C17.6837 24.8622 18.8768 25.2109 20.105 25.2888C21.3332 25.3667 22.5636 25.1717 23.7009 24.719C24.8383 24.2662 25.8521 23.5678 26.664 22.6778C27.4759 21.7877 28.0641 20.7299 28.3831 19.5862C28.7021 18.4425 28.7434 17.2435 28.5037 16.0819C28.264 14.9204 27.7497 13.8275 27.0008 12.8878C26.2518 11.948 25.2882 11.1867 24.1844 10.6626C23.0807 10.1384 21.8664 9.86563 20.6355 9.86523V9.86523ZM13.9485 17.5854C13.9487 16.1579 14.4424 14.7711 15.3518 13.6432C16.2612 12.5153 17.5346 11.7104 18.9717 11.3552C20.4087 11 21.9278 11.1148 23.2896 11.6813C24.6515 12.2478 25.7788 13.2341 26.4941 14.4847C27.2094 15.7353 27.4721 17.1792 27.2408 18.5892C27.0096 19.9992 26.2974 21.2952 25.2165 22.2731C24.1357 23.2509 22.7474 23.8552 21.2704 23.9907C19.7934 24.1263 18.3115 23.7853 17.058 23.0217C16.9741 22.9705 16.8795 22.938 16.781 22.9264C16.6824 22.9148 16.5824 22.9245 16.4882 22.9548L14.2708 23.6663L14.9529 21.3747C14.9778 21.2903 14.9844 21.2019 14.9724 21.1149C14.9605 21.028 14.9302 20.9443 14.8834 20.869C14.2693 19.8758 13.9463 18.7411 13.9485 17.5854Z" fill="white"/>
<path id="Vector_4" d="M26.354 27.8111L23.1416 26.2671C23.73 26.1088 24.2957 25.8978 24.8307 25.6392L26.6536 26.5167L32.6719 23.6217V22.7326C32.6719 22.3913 32.531 22.064 32.2802 21.8227C32.0294 21.5814 31.6892 21.4459 31.3345 21.4459H29.0957C29.3003 21.0341 29.4715 20.6031 29.6093 20.1592H31.3345C32.0439 20.1592 32.7243 20.4303 33.2259 20.9129C33.7275 21.3955 34.0093 22.0501 34.0093 22.7326V29.166C34.0093 29.8485 33.7275 30.5031 33.2259 30.9857C32.7243 31.4683 32.0439 31.7394 31.3345 31.7394H21.9727C21.2633 31.7394 20.5829 31.4683 20.0813 30.9857C19.5797 30.5031 19.2979 29.8485 19.2979 29.166V26.5026C19.7352 26.5618 20.1805 26.5926 20.6353 26.5926V29.166C20.6353 29.5073 20.7762 29.8346 21.027 30.0759C21.2778 30.3172 21.618 30.4527 21.9727 30.4527H31.3345C31.6892 30.4527 32.0294 30.3172 32.2802 30.0759C32.531 29.8346 32.6719 29.5073 32.6719 29.166V25.0602L26.9532 27.8111C26.8602 27.856 26.7576 27.8793 26.6536 27.8793C26.5496 27.8793 26.447 27.856 26.354 27.8111V27.8111Z" fill="white"/>
</g>
</g>
</g>
</svg>
