<svg width="45" height="42" viewBox="0 0 45 42" fill="none" xmlns="http://www.w3.org/2000/svg">
<ellipse rx="22.0869" ry="20.9948" transform="matrix(-1 0 0 1 22.0869 20.9948)" fill="#167D8F"/>
<path d="M24.6198 9.62988V12.8799L26.2591 13.6924L28.718 11.2549L31.9965 14.5049L29.5376 16.9424L30.3572 18.5674H33.6357V23.4424H30.3572L29.5376 25.0674L31.9965 27.5049L28.718 30.7549L26.2591 28.3174L24.6198 29.1299V32.3799H19.702V29.1299L18.0627 28.3174L15.6038 30.7549L12.3253 27.5049L14.7842 25.0674L13.9646 23.4424H10.6861V18.5674H13.9646L14.7842 16.9424L12.3253 14.5049L15.6038 11.2549L18.0627 13.6924L19.702 12.8799V9.62988H24.6198Z" stroke="white" stroke-width="1.38" stroke-linecap="round" stroke-linejoin="round"/>
<path d="M22.1609 24.2549C20.3502 24.2549 18.8824 22.7998 18.8824 21.0049C18.8824 19.21 20.3502 17.7549 22.1609 17.7549C23.9716 17.7549 25.4395 19.21 25.4395 21.0049C25.4395 22.7998 23.9716 24.2549 22.1609 24.2549Z" stroke="white" stroke-width="1.38" stroke-linecap="round" stroke-linejoin="round"/>
</svg>
