<svg width="50" height="50" viewBox="0 0 25 26" fill="none" xmlns="http://www.w3.org/2000/svg">
<path d="M14.9841 1.62939V4.87939L16.6233 5.69189L19.0822 3.25439L22.3607 6.50439L19.9018 8.9419L20.7215 10.5669H24V15.4419H20.7215L19.9018 17.0669L22.3607 19.5044L19.0822 22.7544L16.6233 20.3169L14.9841 21.1294V24.3794H10.0663V21.1294L8.427 20.3169L5.9681 22.7544L2.68958 19.5044L5.14847 17.0669L4.32884 15.4419H1.05031V10.5669H4.32884L5.14847 8.9419L2.68958 6.50439L5.9681 3.25439L8.427 5.69189L10.0663 4.87939V1.62939H14.9841Z" stroke="white" stroke-width="1.38" stroke-linecap="round" stroke-linejoin="round"/>
<path d="M12.5242 16.2544C10.7135 16.2544 9.24568 14.7993 9.24568 13.0044C9.24568 11.2095 10.7135 9.75439 12.5242 9.75439C14.3349 9.75439 15.8027 11.2095 15.8027 13.0044C15.8027 14.7993 14.3349 16.2544 12.5242 16.2544Z" stroke="white" stroke-width="1.38" stroke-linecap="round" stroke-linejoin="round"/>
</svg>
