<svg width="40" height="40" viewBox="0 0 40 40" fill="none" xmlns="http://www.w3.org/2000/svg">
<path d="M25.7138 15.3223C27.8874 15.3223 29.6554 13.5543 29.6554 11.3815C29.6554 9.20794 27.8874 7.43994 25.7138 7.43994C23.541 7.43994 21.773 9.20794 21.773 11.3815C21.773 11.8927 21.8778 12.3775 22.0562 12.8263L14.2274 17.3671C13.513 16.6471 12.5242 16.1999 11.433 16.1999C9.26019 16.1999 7.49219 17.9679 7.49219 20.1407C7.49219 22.3143 9.26019 24.0823 11.433 24.0823C12.541 24.0823 13.5402 23.6183 14.257 22.8791L22.0202 27.7719C21.8698 28.1887 21.7738 28.6311 21.7738 29.0991C21.7738 31.2719 23.5418 33.0399 25.7146 33.0399C27.8882 33.0399 29.6562 31.2719 29.6562 29.0991C29.6562 26.9255 27.8882 25.1575 25.7146 25.1575C24.585 25.1575 23.5722 25.6415 22.853 26.4055L15.1098 21.5247C15.273 21.0919 15.3738 20.6287 15.3738 20.1399C15.3738 19.6351 15.2698 19.1567 15.0962 18.7127L22.9322 14.1679C23.6442 14.8815 24.6282 15.3223 25.7138 15.3223ZM25.7138 26.7583C27.005 26.7583 28.0554 27.8087 28.0554 29.0999C28.0554 30.3903 27.005 31.4407 25.7138 31.4407C24.4234 31.4407 23.373 30.3903 23.373 29.0999C23.373 28.6695 23.4978 28.2711 23.701 27.9247C23.7074 27.9159 23.7154 27.9095 23.7218 27.8999C23.7306 27.8863 23.7306 27.8703 23.7386 27.8567C24.1522 27.1991 24.8802 26.7583 25.7138 26.7583ZM11.4322 22.4831C10.1418 22.4831 9.09139 21.4327 9.09139 20.1415C9.09139 18.8511 10.1418 17.8007 11.4322 17.8007C12.1954 17.8007 12.8682 18.1735 13.2962 18.7407C13.3074 18.7663 13.3082 18.7935 13.3226 18.8175C13.3602 18.8831 13.4066 18.9399 13.4586 18.9903C13.653 19.3319 13.7738 19.7207 13.7738 20.1407C13.7738 20.5999 13.6362 21.0263 13.4066 21.3879C13.405 21.3903 13.4026 21.3911 13.401 21.3935C13.3978 21.3983 13.3986 21.4031 13.3954 21.4079C12.977 22.0535 12.2554 22.4831 11.4322 22.4831ZM25.7138 9.04074C27.005 9.04074 28.0554 10.0911 28.0554 11.3823C28.0554 12.6727 27.005 13.7231 25.7138 13.7231C24.4234 13.7231 23.373 12.6727 23.373 11.3823C23.373 10.0903 24.4226 9.04074 25.7138 9.04074Z" fill="white"/>
</svg>
