<svg width="65" height="65" viewBox="0 0 65 65" fill="none" xmlns="http://www.w3.org/2000/svg">
<ellipse rx="32.1667" ry="32.5" transform="matrix(-1 0 0 1 32.8333 32.5)" fill="#167D8F"/>
<path fill-rule="evenodd" clip-rule="evenodd" d="M33.1272 47.245C25.2584 47.245 18.8794 40.6948 18.8794 32.6149C18.8794 24.5351 25.2584 17.9849 33.1272 17.9849C40.9959 17.9849 47.3749 24.5351 47.3749 32.6149C47.3749 40.6948 40.9959 47.245 33.1272 47.245ZM33.1272 48.8705C24.3838 48.8705 17.2963 41.5929 17.2963 32.6149C17.2963 23.637 24.3838 16.3594 33.1272 16.3594C41.8705 16.3594 48.958 23.637 48.958 32.6149C48.958 41.5929 41.8705 48.8705 33.1272 48.8705Z" fill="white"/>
<path d="M42.626 42.0671C42.626 41.2275 42.0149 40.518 41.2012 40.4253C35.0944 39.7312 31.1328 39.7938 25.0395 40.4407C24.7352 40.4736 24.4468 40.5966 24.2096 40.795C23.9723 40.9933 23.7964 41.2583 23.7034 41.5576C23.6104 41.8569 23.6042 42.1775 23.6858 42.4803C23.7673 42.7831 23.9329 43.055 24.1625 43.2627C31.3536 49.6991 35.4633 49.6105 42.1194 43.2692C42.4439 42.9604 42.626 42.5215 42.626 42.0679V42.0671Z" fill="white"/>
<path fill-rule="evenodd" clip-rule="evenodd" d="M25.1195 41.2483C31.1645 40.6063 35.0692 40.5461 41.1134 41.2329C41.5203 41.2792 41.8329 41.636 41.8329 42.0676C41.8329 42.3001 41.7387 42.5203 41.5796 42.6731C38.2805 45.8153 35.7808 47.2353 33.3373 47.2442C30.8851 47.2532 28.2508 45.8446 24.681 42.6504C24.5676 42.5467 24.4859 42.4115 24.446 42.2611C24.406 42.1107 24.4095 41.9516 24.4559 41.8032C24.5024 41.6547 24.5898 41.5234 24.7076 41.425C24.8254 41.3267 24.9685 41.2656 25.1195 41.2492V41.2483ZM41.2868 39.6171C35.1159 38.9157 31.0964 38.9791 24.9557 39.6317C24.4979 39.6808 24.064 39.8658 23.7071 40.1642C23.3502 40.4626 23.0858 40.8613 22.9462 41.3116C22.8065 41.762 22.7978 42.2443 22.9211 42.6996C23.0443 43.155 23.2942 43.5635 23.6401 43.8752C27.2614 47.1166 30.2772 48.882 33.342 48.8698C36.4156 48.8584 39.2984 47.063 42.6553 43.8647C42.8957 43.6348 43.0873 43.3565 43.2182 43.0472C43.3491 42.7378 43.4164 42.4041 43.416 42.0668C43.4172 41.4608 43.2006 40.8757 42.8077 40.4235C42.4148 39.9714 41.8732 39.6839 41.2868 39.6163V39.6171Z" fill="white"/>
<path d="M26.7972 29.3636C26.7972 31.0881 27.4644 32.7419 28.6519 33.9613C29.8395 35.1807 31.4501 35.8658 33.1296 35.8658C34.809 35.8658 36.4197 35.1807 37.6072 33.9613C38.7948 32.7419 39.4619 31.0881 39.4619 29.3636C39.4619 27.6391 38.7948 25.9852 37.6072 24.7658C36.4197 23.5464 34.809 22.8613 33.1296 22.8613C31.4501 22.8613 29.8395 23.5464 28.6519 24.7658C27.4644 25.9852 26.7972 27.6391 26.7972 29.3636V29.3636Z" fill="white"/>
<path fill-rule="evenodd" clip-rule="evenodd" d="M33.1296 34.2402C31.87 34.2402 30.662 33.7264 29.7713 32.8119C28.8807 31.8973 28.3803 30.6569 28.3803 29.3636C28.3803 28.0702 28.8807 26.8298 29.7713 25.9152C30.662 25.0007 31.87 24.4869 33.1296 24.4869C34.3892 24.4869 35.5971 25.0007 36.4878 25.9152C37.3785 26.8298 37.8788 28.0702 37.8788 29.3636C37.8788 30.6569 37.3785 31.8973 36.4878 32.8119C35.5971 33.7264 34.3892 34.2402 33.1296 34.2402V34.2402ZM33.1296 35.8658C31.4501 35.8658 29.8395 35.1807 28.6519 33.9613C27.4644 32.7419 26.7972 31.0881 26.7972 29.3636C26.7972 27.6391 27.4644 25.9852 28.6519 24.7658C29.8395 23.5464 31.4501 22.8613 33.1296 22.8613C34.809 22.8613 36.4197 23.5464 37.6072 24.7658C38.7948 25.9852 39.4619 27.6391 39.4619 29.3636C39.4619 31.0881 38.7948 32.7419 37.6072 33.9613C36.4197 35.1807 34.809 35.8658 33.1296 35.8658V35.8658Z" fill="white"/>
</svg>
